# xmcd
#
# Track frame offsets:
#	150
#	15752
#	43212
#	57592
#	85097
#	88155
#	110620
#	136717
#	165447
#	195712
#	198680
#	217872
#	233220
#	270000
#	280100
#
# Disc length: 4063 seconds
#
# Revision: 1
# Processed by: cddbd v1.5PL3 Copyright (c) Steve Scherf et al.
# Submitted via: CDex 1.50Beta5
#
DISCID=c40fdd0f
DTITLE=Oki - Kamuy Kor Nupurpe
DYEAR=1900
DGENRE=
TTITLE0=Drum Song
TTITLE1=Utuwaskarap (Let's Understand One Another)
TTITLE2=Kent Hakka Tuhse
TTITLE3=Kai Kai As To
TTITLE4=Seed-Sowing Song
TTITLE5=Koshi Turiri
TTITLE6=Tuwas Tuwas (Believe Me)
TTITLE7=Samaykur Inkar Chashi
TTITLE8=Topattumi (Taking Over)
TTITLE9=Urar Suye
TTITLE10=Earthquake Song
TTITLE11=Susuriuka (Willow Bridge)
TTITLE12=Nehikorachi (As Always)
TTITLE13=Ekashi Speaks
TTITLE14=Uchaore (Communication)
EXTD=
EXTT0=
EXTT1=
EXTT2=
EXTT3=
EXTT4=
EXTT5=
EXTT6=
EXTT7=
EXTT8=
EXTT9=
EXTT10=
EXTT11=
EXTT12=
EXTT13=
EXTT14=
PLAYORDER=
